HIERARCHY
ROOT SpineBase
{
  OFFSET 0.000000 0.000000 0.000000
  CHANNELS 6 Xposition Yposition Zposition Zrotation Xrotation Yrotation
  JOINT SpineMid
  {
    OFFSET 0.000000 29.136125 0.000000
    CHANNELS 3 Zrotation Xrotation Yrotation
    JOINT SpineShoulder
    {
      OFFSET 0.143058 21.497918 -0.615350
      CHANNELS 3 Zrotation Xrotation Yrotation
      JOINT Neck
      {
        OFFSET 0.131940 7.075263 -0.511642
        CHANNELS 3 Zrotation Xrotation Yrotation
        JOINT Head
        {
          OFFSET -1.183048 10.297721 5.641691
          CHANNELS 3 Zrotation Xrotation Yrotation
          End Site
          {
            OFFSET 0 0 0
          }
        }
      }
      JOINT ShoulderLeft
      {
        OFFSET -3.931457 -6.267558 -8.957409
        CHANNELS 3 Zrotation Xrotation Yrotation
        JOINT ElbowLeft
        {
          OFFSET -9.596033 -5.128688 18.282296
          CHANNELS 3 Zrotation Xrotation Yrotation
          JOINT WristLeft
          {
            OFFSET -6.828419 12.355047 17.012770
            CHANNELS 3 Zrotation Xrotation Yrotation
            JOINT HandLeft
            {
              OFFSET -6.414487 4.123789 -0.717354
              CHANNELS 3 Zrotation Xrotation Yrotation
              JOINT HandTipLeft
              {
                OFFSET -2.679566 0.582793 0.130541
                CHANNELS 3 Zrotation Xrotation Yrotation
                End Site
                {
                  OFFSET 0 0 0
                }
              }
              JOINT ThumbLeft
              {
                OFFSET 2.317241 0.882029 -2.882621
                CHANNELS 3 Zrotation Xrotation Yrotation
                End Site
                {
                  OFFSET 0 0 0
                }
              }
            }
          }
        }
      }
      JOINT ShoulderRight
      {
        OFFSET 11.422690 -6.390599 8.860190
        CHANNELS 3 Zrotation Xrotation Yrotation
        JOINT ElbowRight
        {
          OFFSET -10.272835 -15.452847 -14.943074
          CHANNELS 3 Zrotation Xrotation Yrotation
          JOINT WristRight
          {
            OFFSET -7.286110 -19.386064 -6.262508
            CHANNELS 3 Zrotation Xrotation Yrotation
            JOINT HandRight
            {
              OFFSET -1.972962 -7.188684 -1.212645
              CHANNELS 3 Zrotation Xrotation Yrotation
              JOINT HandTipRight
              {
                OFFSET -3.761920 -6.944322 0.391971
                CHANNELS 3 Zrotation Xrotation Yrotation
                End Site
                {
                  OFFSET 0 0 0
                }
              }
              JOINT ThumbRight
              {
                OFFSET 4.833985 -0.966593 1.058558
                CHANNELS 3 Zrotation Xrotation Yrotation
                End Site
                {
                  OFFSET 0 0 0
                }
              }
            }
          }
        }
      }
    }
  }
  JOINT HipLeft
  {
    OFFSET -3.532464 1.259914 -0.130965
    CHANNELS 3 Zrotation Xrotation Yrotation
    JOINT KneeLeft
    {
      OFFSET 17.697297 -24.278387 -6.648610
      CHANNELS 3 Zrotation Xrotation Yrotation
      JOINT AnkleLeft
      {
        OFFSET -5.545501 -28.893619 7.042396
        CHANNELS 3 Zrotation Xrotation Yrotation
        JOINT FootLeft
        {
          OFFSET 7.017477 -2.381407 -8.612276
          CHANNELS 3 Zrotation Xrotation Yrotation
          End Site
          {
            OFFSET 0 0 0
          }
        }
      }
    }
  }
  JOINT HipRight
  {
    OFFSET 4.540725 0.653997 -6.487828
    CHANNELS 3 Zrotation Xrotation Yrotation
    JOINT KneeRight
    {
      OFFSET 2.933415 -21.479587 -1.822241
      CHANNELS 3 Zrotation Xrotation Yrotation
      JOINT AnkleRight
      {
        OFFSET 2.606724 -30.127276 4.848559
        CHANNELS 3 Zrotation Xrotation Yrotation
        JOINT FootRight
        {
          OFFSET 7.201305 -2.287444 -8.805990
          CHANNELS 3 Zrotation Xrotation Yrotation
          End Site
          {
            OFFSET 0 0 0
          }
        }
      }
    }
  }
}
MOTION
Frames: 14
Frame Time: 0.033333
-43.278566 56.819238 315.893396 -0.000000 0.000000 38.217045 0.000000 -0.000000 -38.217045 -0.000000 0.000000 0.000000 -0.000000 0.000000 0.000000 0.000000 0.000000 0.000000 -0.000000 0.000000 0.000000 -0.000000 0.000000 0.000000 -0.000000 0.000000 0.000000 -0.000000 0.000000 0.000000 0.000000 0.000000 0.000000 0.000000 0.000000 0.000000 -0.000000 0.000000 0.000000 -0.000000 0.000000 0.000000 -0.000000 0.000000 0.000000 -0.000000 0.000000 0.000000 0.000000 0.000000 0.000000 0.000000 0.000000 0.000000 0.000000 -0.000000 -38.217045 -0.000000 0.000000 0.000000 -0.000000 0.000000 0.000000 0.000000 0.000000 0.000000 0.000000 -0.000000 -38.217045 -0.000000 0.000000 0.000000 -0.000000 0.000000 0.000000 0.000000 0.000000 0.000000
-43.295257 56.741799 315.893227 -0.036914 0.017967 37.982235 0.018038 -0.036879 -37.982223 -0.000000 0.000000 0.000000 -0.000000 0.000000 0.000000 0.000000 0.000000 0.000000 0.755016 1.336024 0.193179 -0.759722 -1.333354 -0.210823 -2.933934 0.855858 0.878866 2.920822 -0.899624 -0.834012 0.000000 0.000000 0.000000 0.000000 0.000000 0.000000 -0.538388 1.218188 -0.279760 -0.636079 0.420928 0.046533 2.777995 -8.164117 1.943604 1.291070 7.108888 -1.976439 0.000000 0.000000 0.000000 0.000000 0.000000 0.000000 0.018038 -0.036879 -37.982223 -0.962016 -1.170243 -0.019617 0.961816 1.170407 -0.000032 0.000000 0.000000 0.000000 0.018038 -0.036879 -37.982223 -0.000000 0.000000 0.000000 -2.028448 -2.319391 0.537664 0.000000 0.000000 0.000000
-43.296631 56.661955 315.912009 -0.055152 0.008424 37.732421 0.038463 -0.040414 -37.732404 -0.000000 0.000000 0.000000 -0.000000 0.000000 0.000000 0.000000 0.000000 0.000000 1.311493 2.316441 0.346395 -1.326545 -2.307857 -0.399632 -5.548563 1.499160 1.559778 5.507970 -1.642433 -1.408116 0.000000 0.000000 0.000000 0.000000 0.000000 0.000000 -1.061032 2.305485 -0.473325 -0.933820 0.456558 0.091446 5.240590 -14.734995 3.799004 2.690062 12.910426 -4.011523 0.000000 0.000000 0.000000 0.000000 0.000000 0.000000 0.038463 -0.040414 -37.732404 -1.697969 -2.057486 -0.049091 1.697301 2.058037 -0.011890 0.000000 0.000000 0.000000 0.038463 -0.040414 -37.732404 -0.000000 0.000000 0.000000 -3.815916 -4.393099 0.952646 0.000000 0.000000 0.000000
-43.282686 56.579705 315.949741 -0.054791 -0.028513 37.467499 0.060832 -0.010699 -37.467507 -0.000000 0.000000 0.000000 -0.729092 -0.368910 0.355601 0.000000 0.000000 0.000000 1.671015 2.939017 0.469760 -1.123246 -2.288800 -0.952690 -8.379568 1.245624 2.340165 7.603469 -2.377377 -2.566272 0.000000 0.000000 0.000000 0.000000 0.000000 0.000000 -1.572129 3.263595 -0.583621 -0.928268 0.161894 0.129487 7.219944 -19.461529 5.342644 4.038549 17.082491 -5.794237 0.000000 0.000000 0.000000 0.000000 0.000000 0.000000 1.094485 -0.141346 -37.330761 -3.113076 -3.175223 -0.237279 2.203211 2.659070 -0.024748 0.000000 0.000000 0.000000 0.060832 -0.010699 -37.467507 -0.000000 0.000000 0.000000 -5.172682 -5.980865 1.234081 0.000000 0.000000 0.000000
-43.253422 56.495050 316.006425 -0.035911 -0.092716 37.187548 0.084649 0.052158 -37.187615 -0.000000 0.000000 0.000000 -0.909694 -0.454496 0.443938 0.000000 0.000000 0.000000 1.834961 3.202934 0.569805 -1.145115 -2.353972 -1.151806 -10.400951 1.279205 2.572867 9.440193 -2.757456 -2.836812 0.000000 0.000000 0.000000 0.000000 0.000000 0.000000 -2.075300 4.094129 -0.613057 -0.642327 -0.429347 0.161500 8.523305 -22.218774 6.348462 5.118097 19.475613 -6.996410 0.000000 0.000000 0.000000 0.000000 0.000000 0.000000 1.372974 -0.035544 -36.968561 -3.574852 -3.664444 -0.354118 2.477546 2.971682 -0.031118 0.000000 0.000000 0.000000 0.769610 0.856365 -37.054177 0.436718 -0.297019 0.012174 -6.457092 -7.607769 1.158987 0.000000 0.000000 0.000000
-43.208839 56.407989 316.082058 0.001400 -0.184050 36.892839 0.109369 0.148036 -36.892978 -0.000000 0.000000 0.000000 -1.059517 -0.521298 0.517608 0.000000 0.000000 0.000000 1.804356 3.107710 0.649406 -0.988975 -2.070871 -1.289158 -12.002592 1.151292 2.511588 10.909685 -2.900539 -2.834399 0.000000 0.000000 0.000000 0.000000 0.000000 0.000000 -2.573622 4.798412 -0.563541 -0.087743 -1.302332 0.193012 8.991418 -22.940770 6.636621 5.737048 20.034747 -7.346514 0.000000 0.000000 0.000000 0.000000 0.000000 0.000000 1.605163 0.146524 -36.574096 -3.743303 -3.867885 -0.476466 2.519331 2.995164 -0.027000 0.000000 0.000000 0.000000 0.919014 1.382393 -36.694851 0.613820 -0.683406 -0.045170 -6.540518 -7.701025 1.181517 0.000000 0.000000 0.000000
-43.117264 56.284427 316.218902 0.109178 -0.374956 35.806385 0.130825 0.367963 -35.806448 -0.000000 0.000000 0.000000 -1.199804 -0.603853 0.584033 0.000000 0.000000 0.000000 1.708013 2.791803 0.929399 -0.693371 -1.489715 -1.676502 -14.085846 0.594548 1.715183 12.815137 -2.597707 -2.346802 0.000000 0.000000 0.000000 0.000000 0.000000 0.000000 -2.759212 4.696291 -0.323879 0.475692 -2.268861 0.242854 7.220237 -16.874739 4.360928 5.402529 14.901315 -5.117151 0.000000 0.000000 0.000000 0.000000 0.000000 0.000000 2.057446 0.422238 -35.390400 -3.248007 -2.535986 -0.645799 1.693038 1.394337 0.125180 0.000000 0.000000 0.000000 1.090748 2.549444 -35.470691 0.978039 -1.511740 -0.183621 -5.346368 -6.373614 1.019381 0.000000 0.000000 0.000000
-43.022161 56.172931 316.363191 0.210089 -0.565220 35.216111 0.154303 0.582925 -35.215860 -0.000000 0.000000 0.000000 -1.295753 -0.588971 0.638214 0.000000 0.000000 0.000000 1.233678 1.983373 0.724445 -0.134641 -0.392439 -1.370369 -15.180221 0.140693 0.987450 13.926930 -2.248760 -1.543927 0.000000 0.000000 0.000000 0.000000 0.000000 0.000000 -3.432172 5.432381 -0.123156 1.811301 -4.042380 0.321307 5.799658 -14.410614 3.582294 4.869240 12.957584 -4.133353 0.000000 0.000000 0.000000 0.000000 0.000000 0.000000 1.660676 1.247844 -34.449509 -1.619466 -2.317871 -0.827505 0.739608 0.928385 -0.003921 0.000000 0.000000 0.000000 1.271774 3.483655 -34.779900 1.124291 -2.298313 -0.314083 -3.496375 -4.244550 0.763058 0.000000 0.000000 0.000000
-42.971004 56.088880 316.443753 0.240219 -0.647062 35.833283 0.184059 0.665219 -35.832995 -0.000000 0.000000 0.000000 -1.384622 -0.594710 0.685998 0.000000 0.000000 0.000000 0.428174 0.525428 0.554178 0.682226 1.220824 -1.094686 -14.886138 -0.397429 0.074864 13.694013 -1.666145 -0.884115 0.000000 0.000000 0.000000 0.000000 0.000000 0.000000 -4.350089 6.567251 0.081150 4.369418 -6.554439 0.418863 4.363673 -11.834323 3.060397 4.172672 11.228906 -3.144102 0.000000 0.000000 0.000000 0.000000 0.000000 0.000000 1.456857 1.493998 -34.979655 -0.567999 -1.408449 -0.884304 -0.000000 0.000000 0.000000 0.000000 0.000000 0.000000 1.522662 3.602094 -35.397463 0.609808 -3.169027 -0.468518 -1.014254 -1.102062 0.454833 0.000000 0.000000 0.000000
-42.961273 56.051769 316.477468 0.202428 -0.652032 37.273189 0.233802 0.641452 -37.273346 -0.000000 0.000000 0.000000 -1.341120 -0.541497 0.668853 0.000000 0.000000 0.000000 -0.190873 -1.004929 1.158376 1.322160 2.476540 -1.839715 -12.977595 -0.584398 -0.149597 11.838277 -1.178398 -0.574139 0.000000 0.000000 0.000000 0.000000 0.000000 0.000000 -5.216927 7.690899 0.254481 5.312097 -8.567120 0.769100 4.462353 -9.265193 2.097011 3.458052 6.589493 -0.465259 0.000000 0.000000 0.000000 0.000000 0.000000 0.000000 1.438217 1.684096 -36.256789 -0.354839 -1.552806 -1.045808 -0.000000 0.000000 0.000000 0.000000 0.000000 0.000000 1.514462 3.340485 -36.866909 0.594576 -2.927349 -0.435751 1.213741 1.436319 -0.153383 0.000000 0.000000 0.000000
-42.985749 56.079971 316.458435 0.123147 -0.577890 39.484333 0.272422 0.524318 -39.484959 -0.000000 0.000000 0.000000 -1.314577 -0.535960 0.655045 0.000000 0.000000 0.000000 -0.773594 -2.109489 1.090131 1.721864 3.136590 -1.783997 -10.737479 -0.401405 -0.125877 9.807930 -0.922461 -0.557865 0.000000 0.000000 0.000000 0.000000 0.000000 0.000000 -5.930532 8.642139 0.390462 6.763016 -10.447816 1.074240 4.268890 -7.905465 1.707644 4.294482 3.250380 1.613919 0.000000 0.000000 0.000000 0.000000 0.000000 0.000000 1.647722 1.638827 -38.350342 0.679829 -1.776597 -0.867743 -1.067370 0.033047 -0.265741 0.000000 0.000000 0.000000 1.402832 2.616931 -39.158700 0.444756 -2.336248 -0.348179 -0.562352 -0.556197 0.425680 0.000000 0.000000 0.000000
-43.013936 56.130428 316.422356 0.038762 -0.479225 41.813895 0.290620 0.383015 -41.814704 -0.000000 0.000000 0.000000 -1.191010 -0.483024 0.594092 0.000000 0.000000 0.000000 -1.202769 -3.036260 1.223137 2.431784 4.394038 -2.119796 -12.365871 -0.407420 0.351380 11.212646 -1.364003 -0.912747 0.000000 0.000000 0.000000 0.000000 0.000000 0.000000 -7.582728 11.683126 0.285584 9.707557 -15.058187 2.458096 4.498070 -8.279833 1.816134 3.179650 5.005204 1.326500 0.000000 0.000000 0.000000 0.000000 0.000000 0.000000 1.622564 1.826191 -40.424205 3.554117 0.069974 -0.885934 -3.600967 -2.087843 -0.537218 0.000000 0.000000 0.000000 1.325573 1.741905 -41.590163 0.127817 -1.703220 -0.241833 -0.577586 -0.556721 0.484830 0.000000 0.000000 0.000000
-43.099274 56.240594 316.327296 -0.107824 -0.311447 44.605887 0.295473 0.146018 -44.606557 -0.000000 0.000000 0.000000 -1.045543 -0.338018 0.532322 0.000000 0.000000 0.000000 -1.138493 -3.001879 1.375470 2.443672 4.334307 -2.370515 -13.364477 -0.142794 0.791791 12.140755 -1.706414 -1.195864 0.000000 0.000000 0.000000 0.000000 0.000000 0.000000 -9.250771 14.324844 0.474108 12.822278 -19.074981 3.754574 3.136776 -4.591774 0.808302 2.948857 3.311679 1.873028 0.000000 0.000000 0.000000 0.000000 0.000000 0.000000 1.815238 1.675931 -43.068926 5.631661 2.624245 -1.167202 -5.615345 -4.881742 -0.658749 0.000000 0.000000 0.000000 1.120786 0.392170 -44.542601 -0.415610 -0.754317 -0.070568 -0.591172 -0.563119 0.518356 0.000000 0.000000 0.000000
-43.225610 56.358256 316.227319 -0.312023 -0.136855 47.292291 0.312196 -0.136460 -47.292292 -0.000000 0.000000 0.000000 -0.817597 -0.186412 0.425916 0.000000 0.000000 0.000000 -0.999199 -2.794797 1.489955 2.291096 3.833735 -2.617681 -10.939013 0.870392 2.894881 9.617713 -2.733285 -2.939944 0.000000 0.000000 0.000000 0.000000 0.000000 0.000000 -8.777822 13.462060 0.473852 12.431640 -18.626806 3.597266 2.629266 -0.932894 -0.343106 3.363830 -1.158849 3.865705 0.000000 0.000000 0.000000 0.000000 0.000000 0.000000 2.668829 0.862407 -45.804487 4.394556 3.200249 -1.394030 -5.205865 -5.700165 -0.425277 0.000000 0.000000 0.000000 1.077166 -1.160977 -47.409485 -1.271930 0.130080 0.127299 -0.610079 -0.576693 0.549889 0.000000 0.000000 0.000000
